<svg className="svg-icon" style="width: 1em;height: 1em;vertical-align: middle;fill: currentColor;overflow: hidden;"
    viewBox="0 0 1024 1024" version="1.1" xmlns="http://www.w3.org/2000/svg">
    <path
        d="M600.1 637h-36 36zM920.5 333.2c-22.6-53.4-55-101.5-96.2-142.7-41.2-41.2-89.2-73.6-142.7-96.2C626.2 70.9 567.5 59 506.8 59 446.2 59 387.4 70.9 332 94.3c-53.4 22.6-101.5 54.9-142.7 96.2-41.2 41.2-73.6 89.2-96.2 142.7C69.9 388.6 58 447.4 58 508c0 60.6 11.9 119.4 35.3 174.8 22.6 53.4 54.9 101.5 96.2 142.7 41.2 41.2 89.2 73.6 142.7 96.2C387.6 945.1 446.3 957 507 957c60.6 0 119.4-11.9 174.8-35.3 53.4-22.6 101.5-55 142.7-96.2 41.2-41.2 73.6-89.2 96.2-142.7C944.1 627.4 956 568.7 956 508c0-60.7-12.1-119.4-35.5-174.8zM506.9 892.1c-211.8 0-384.1-172.3-384.1-384.1s172.3-384.1 384.1-384.1S891 296.2 891 508 718.7 892.1 506.9 892.1z" />
    <path
        d="M224.8 456c12 0 22.9-6.8 28.3-17.6 14.6-29.3 44.8-49.4 79.7-49.4s65.2 20.1 79.7 49.4c5.3 10.7 16.3 17.6 28.3 17.6 23.3 0 38.6-24.5 28.3-45.4-24.8-50.2-76.5-84.6-136.3-84.6s-111.5 34.5-136.3 84.6c-10.4 21 5 45.4 28.3 45.4zM578.3 456c12 0 22.9-6.8 28.3-17.6 14.6-29.3 44.8-49.4 79.7-49.4 34.9 0 65.2 20.1 79.7 49.4 5.3 10.7 16.3 17.6 28.3 17.6 23.3 0 38.6-24.5 28.3-45.4-24.8-50.2-76.5-84.6-136.3-84.6-59.8 0-111.5 34.5-136.3 84.6-10.3 21 5 45.4 28.3 45.4zM508 530c-64.1 0-116 63.6-116 142s51.9 142 116 142 116-63.6 116-142-51.9-142-116-142z m0 220c-35.2 0-63.7-34.9-63.7-78s28.5-78 63.7-78 63.7 34.9 63.7 78-28.5 78-63.7 78z" />
</svg>